<?xml version="1.0" standalone="no"?>
<!DOCTYPE svg PUBLIC "-//W3C//DTD SVG 20010904//EN"
 "http://www.w3.org/TR/2001/REC-SVG-20010904/DTD/svg10.dtd">
<svg version="1.0" xmlns="http://www.w3.org/2000/svg"
 width="200.000000pt" height="200.000000pt" viewBox="0 0 200.000000 200.000000"
 preserveAspectRatio="xMidYMid meet">

<g transform="translate(0.000000,200.000000) scale(0.100000,-0.100000)"
fill="#000000" stroke="none">
<path d="M836 1885 c-288 -60 -515 -233 -641 -488 -70 -143 -89 -224 -89 -397
0 -176 19 -256 94 -405 114 -228 325 -400 575 -467 115 -31 336 -30 450 1 317
86 560 329 646 646 31 114 32 335 1 450 -47 173 -158 349 -293 463 -89 75
-243 154 -354 183 -104 27 -293 34 -389 14z m354 -313 c31 -23 55 -89 46 -125
-12 -49 -57 -88 -106 -93 -55 -6 -86 9 -118 56 -27 40 -26 92 3 136 35 54 120
66 175 26z m-30 -374 c0 -7 -41 -156 -91 -330 -50 -175 -89 -324 -86 -333 4
-8 15 -15 26 -15 18 0 37 19 98 97 13 16 22 20 32 14 11 -7 5 -22 -32 -74 -75
-105 -137 -148 -217 -151 -76 -2 -130 42 -130 107 0 13 34 140 75 282 41 143
75 268 75 279 0 29 -29 56 -62 56 -29 0 -37 13 -16 26 15 10 250 51 296 53 19
1 32 -4 32 -11z" fill="white"/>
</g>
</svg>
